# AST/ASF file generated using VICON BodyLanguage
# -----------------------------------------------
:version 1.10
:name VICON
:units
  mass 1.0
  length 0.45
  angle deg
:documentation
   .ast/.asf automatically generated from VICON data using
   VICON BodyBuilder and BodyLanguage model FoxedUp or BRILLIANT.MOD
:root
   order TX TY TZ RX RY RZ
   axis XYZ
   position 0 0 0  
   orientation 0 0 0 
:bonedata
  begin
     id 1 
     name lhipjoint
     direction 0.612567 -0.751349 0.245431 
     length 2.42285 
     axis 0 0 0  XYZ
  end
  begin
     id 2 
     name lfemur
     direction 0.34202 -0.939693 0  
     length 7.11304  
     axis 0 0 20  XYZ
    dof rx ry rz
    limits (-160.0 20.0)
           (-70.0 70.0)
           (-60.0 70.0)
  end
  begin
     id 3 
     name ltibia
     direction 0.34202 -0.939693 0   
     length 7.84529   
     axis 0 0 20   XYZ
    dof rx
    limits (-10.0 170.0)
  end
  begin
     id 4 
     name lfoot
     direction 0.0779239 -0.214094 0.9737   
     length 1.97176   
     axis -90 7.62852e-016 20   XYZ
    dof rx rz
    limits (-45.0 90.0)
           (-70.0 20.0)
  end
  begin
     id 5 
     name ltoes
     direction 1.53565e-011 -4.21709e-011 1   
     length 0.993197   
     axis -90 7.62852e-016 20   XYZ
    dof rx
    limits (-90.0 20.0)
  end
  begin
     id 6 
     name rhipjoint
     direction -0.665722 -0.709315 0.231701   
     length 2.56642  
     axis 0 0 0  XYZ 
  end
  begin
     id 7 
     name rfemur
     direction -0.34202 -0.939693 0   
     length 7.32108   
     axis 0 0 -20   XYZ
    dof rx ry rz
    limits (-160.0 20.0)
           (-70.0 70.0)
           (-70.0 60.0)
  end
  begin
     id 8 
     name rtibia
     direction -0.34202 -0.939693 0   
     length 7.81254   
     axis 0 0 -20   XYZ
    dof rx
    limits (-10.0 170.0)
 end
 begin
     id 9 
     name rfoot
     direction -0.0832806 -0.228812 0.969902   
     length 2.08278  
     axis -90 -7.62852e-016 -20   XYZ
    dof rx rz
    limits (-45.0 90.0)
           (-20.0 70.0)
  end
  begin
     id 10 
     name rtoes
     direction -1.53589e-011 -4.22086e-011 1   
     length 1.04609   
     axis -90 -7.62852e-016 -20   XYZ
    dof rx
    limits (-90.0 20.0)
  end
  begin
     id 11 
     name lowerback
     direction -0.00506013 0.988403 -0.151766   
     length 2.01978   
     axis 0 0 0   XYZ
    dof rx ry rz
    limits (-20.0 45.0)
           (-30.0 30.0)
           (-30.0 30.0)
  end
  begin
     id 12 
     name upperback
     direction -0.00836389 0.99968 0.0238859   
     length 2.01276   
     axis 0 0 0   XYZ
    dof rx ry rz
    limits (-20.0 45.0)
           (-30.0 30.0)
           (-30.0 30.0)
  end
  begin
     id 13 
     name thorax
     direction -0.00684136 0.995386 0.0957043   
     length 2.07303   
     axis 0 0 0   XYZ
    dof rx ry rz
    limits (-20.0 45.0)
           (-30.0 30.0)
           (-30.0 30.0)
  end
  begin
     id 14 
     name lowerneck
     direction -0.0161045 0.999661 0.0204485   
     length 1.91243   
     axis 0 0 0   XYZ
    dof rx ry rz
    limits (-20.0 45.0)
           (-30.0 30.0)
           (-30.0 30.0)
  end
  begin
     id 15 
     name upperneck
     direction 0.0553583 0.990946 -0.122319   
     length 1.91574   
     axis 0 0 0   XYZ
    dof rx ry rz
    limits (-20.0 45.0)
           (-30.0 30.0)
           (-30.0 30.0)
  end
  begin
     id 16
     name head
     direction 0.0180273 0.998839 -0.0446756  
     length 1.92693  
     axis 0 0 0   XYZ
    dof rx ry rz
    limits (-20.0 45.0)
           (-30.0 30.0)
           (-30.0 30.0)
  end
  begin
     id 17 
     name lclavicle
     direction 0.945646 0.319323 -0.0615358  
     length 4.0076  
     axis 0 0 0   XYZ
    dof ry rz
    limits (-20.0 10.0)
           (0.0 20.0)
  end
  begin
     id 18 
     name lhumerus
     direction 1 -4.48967e-011 -2.79996e-027   
     length 5.64147   
     axis 180 -30 -90   XYZ
    dof rx ry rz
    limits (-60.0 90.0)
           (-90.0 90.0)
           (-90.0 90.0)
  end
  begin
     id 19
     name lradius
     direction 1 -4.48976e-011 -9.5122e-027   
     length 2.86444   
     axis 180 -30 -90   XYZ
    dof rx
    limits (-10.0 170.0)
  end
  begin
     id 20
     name lwrist
     direction 1 -4.48983e-011 -1.24047e-026   
     length 1.43222   
     axis 9.05591e-015 90 90   XYZ
    dof ry
    limits (-180.0 0.0)
 end
  begin
     id 21 
     name lhand
     direction 1 -4.4892e-011 -2.48094e-026   
     length 0.722123   
     axis 1.58305e-014 90 90   XYZ
    dof rx rz
    limits (-90.0 90.0)
           (-45.0 45.0)
  end
  begin
     id 22 
     name lfingers
     direction 1 -4.48895e-011 -4.96187e-026   
     length 0.582194   
     axis 3.1661e-014 90 90   XYZ
    dof rx
    limits (0.0 90.0)
  end
  begin
     id 23
     name lthumb
     direction 0.707107 -6.34961e-011 0.707107   
     length 0.835918   
     axis -90 45 2.85299e-015   XYZ
    dof rx rz
    limits (-45.0 45.0)
           (-45.0 45.0)
  end
  begin
     id 24 
     name rclavicle
     direction -0.932635 0.324218 -0.15835   
     length 3.65819  
     axis 0 0 0   XYZ 
    dof ry rz
    limits (-10.0 20.0)
           (-20.0 0.0)
  end
  begin
     id 25 
     name rhumerus
     direction -1 -4.48965e-011 -4.02296e-027  
     length 5.44729   
     axis 180 30 90   XYZ
    dof rx ry rz
    limits (-90.0 60.0)
           (-90.0 90.0)
           (-90.0 90.0)
  end
  begin
     id 26 
     name rradius
     direction -1 -4.48957e-011 -8.81087e-027   
     length 3.08821   
     axis 180 30 90   XYZ
    dof rx
    limits (-10.0 170.0)
  end
  begin
     id 27 
     name rwrist
     direction -1 -4.49015e-011 -1.24047e-026   
     length 1.5441   
     axis 9.05591e-015 -90 -90   XYZ
    dof ry
    limits (-180.0 0.0)
  end
  begin
     id 28
     name rhand
     direction -1 -4.4891e-011 -2.48094e-026   
     length 0.821049   
     axis 1.58305e-014 -90 -90   XYZ
    dof rx rz
    limits (-90.0 90.0)
           (-45.0 45.0)
  end
  begin
     id 29
     name rfingers
     direction -1 -4.48985e-011 -4.96187e-026   
     length 0.661951   
     axis 3.1661e-014 -90 -90   XYZ
    dof rx
    limits (0.0 90.0)
  end
  begin
     id 30
     name rthumb
     direction -0.707107 -6.34906e-011 0.707107   
     length 0.950433   
     axis -90 -45 -2.85299e-015   XYZ
    dof rx rz
    limits (-45.0 45.0)
           (-45.0 45.0)
  end
:hierarchy
  begin
    root lhipjoint rhipjoint lowerback
    lhipjoint lfemur
    lfemur ltibia
    ltibia lfoot
    lfoot ltoes
    rhipjoint rfemur
    rfemur rtibia
    rtibia rfoot
    rfoot rtoes
    lowerback upperback
    upperback thorax
    thorax lowerneck lclavicle rclavicle
    lowerneck upperneck
    upperneck head
    lclavicle lhumerus
    lhumerus lradius
    lradius lwrist
    lwrist lhand lthumb
    lhand lfingers
    rclavicle rhumerus
    rhumerus rradius
    rradius rwrist
    rwrist rhand rthumb
    rhand rfingers
  end

#!OML:ASF F:\VICON\USERDATA\INSTALL\rory3\rory3.ASF
:FULLY-SPECIFIED
:DEGREES
1143
root 3.04982 17.6951 0.581207 -19.4473 87.6935 -18.4674
lowerback 6.85312 -0.546057 4.69176
upperback -2.86501 -0.387714 -1.8596
thorax -6.91631 -0.444056 -4.55494
lowerneck -7.29298 -5.07095 -5.99939
upperneck 13.7222 -7.16087 8.00331
head 5.84616 -3.19408 2.97626
rclavicle 5.71506e-015 1.07344e-014
rhumerus -91.6031 37.0982 -114.558
rradius 109.968
rwrist 8.79281
rhand 3.80791 12.8361
rfingers 7.12502
rthumb 29.2323 -14.8875
lclavicle 5.71506e-015 1.07344e-014
lhumerus -12.8046 25.7194 8.16229
lradius 90.5605
lwrist 13.362
lhand 4.31078 44.7224
lfingers 7.12502
lthumb 29.7124 72.3614
rfemur -0.0776257 0.244795 20.0723
rtibia 15.4186
rfoot -15.2268 0.739347
rtoes -5.98937
lfemur 4.56146 1.28875 -14.7537
ltibia 6.27906
lfoot -10.4986 2.34438
ltoes -8.17604
1144
root 3.05476 17.6941 0.58267 -18.8981 87.7431 -17.9128
lowerback 6.78951 -0.540299 4.65632
upperback -2.86463 -0.388465 -1.90088
thorax -6.87927 -0.442669 -4.57832
lowerneck -7.23267 -5.0662 -5.97157
upperneck 13.6645 -7.15084 7.95861
head 5.81433 -3.19357 2.95976
rclavicle -8.4732e-015 -1.19271e-014
rhumerus -91.5786 37.0591 -114.55
rradius 109.955
rwrist 8.74102
rhand 3.81658 12.8449
rfingers 7.12502
rthumb 29.2406 -14.8772
lclavicle -8.4732e-015 -1.19271e-014
lhumerus -12.6881 25.86 8.22997
lradius 90.5272
lwrist 13.3716
lhand 4.10587 44.7905
lfingers 7.12502
lthumb 29.5168 72.4642
rfemur -0.0119341 0.237863 20.0308
rtibia 15.3449
rfoot -15.2461 0.804028
rtoes -5.5687
lfemur 4.49628 1.25629 -14.79
ltibia 6.44154
lfoot -10.5585 2.31553
ltoes -8.48359
1145
root 3.05898 17.695 0.584195 -18.9391 87.7579 -17.978
lowerback 6.70543 -0.529662 4.64268
upperback -2.88505 -0.380397 -1.9324
thorax -6.85183 -0.438326 -4.60492
lowerneck -7.22111 -5.04775 -5.96621
upperneck 13.6726 -7.12428 7.93904
head 5.81199 -3.18188 2.95518
rclavicle -1.49089e-016 1.98785e-015
rhumerus -91.5595 37.0559 -114.581
rradius 109.908
rwrist 8.6949
rhand 3.72555 12.7927
rfingers 7.12502
rthumb 29.1536 -14.9445
lclavicle -1.49089e-016 1.98785e-015
lhumerus -12.5518 26.0725 8.36377
lradius 90.4382
lwrist 13.2029
lhand 4.0915 44.7279
lfingers 7.12502
lthumb 29.503 72.404
rfemur 0.0115382 0.251117 20.036
rtibia 15.2908
rfoot -15.2336 0.766389
rtoes -5.7954
lfemur 4.41476 1.25018 -14.7902
ltibia 6.57591
lfoot -10.6093 2.34804
ltoes -8.67974
1146
root 3.0617 17.6953 0.586637 -20.2339 87.7065 -19.3299
lowerback 6.60876 -0.521769 4.67678
upperback -2.91426 -0.370745 -1.9447
thorax -6.82682 -0.435138 -4.63842
lowerneck -7.26316 -5.02505 -5.97589
upperneck 13.6951 -7.09006 7.92496
head 5.8236 -3.16562 2.95419
rclavicle -1.36664e-015 3.57812e-015
rhumerus -91.5021 37.1076 -114.612
rradius 109.83
rwrist 8.65693
rhand 3.69809 12.8026
rfingers 7.12502
rthumb 29.1274 -14.9391
lclavicle -1.36664e-015 3.57812e-015
lhumerus -12.4968 26.2531 8.38928
lradius 90.3977
lwrist 13.0325
lhand 4.36911 44.4828
lfingers 7.12502
lthumb 29.768 72.1118
rfemur -0.0203493 0.244916 20.1141
rtibia 15.2507
rfoot -15.1732 0.771399
rtoes -5.96074
lfemur 4.31024 1.29265 -14.7108
ltibia 6.69283
lfoot -10.6649 2.33673
ltoes -8.57375
1147
root 3.06442 17.6956 0.589996 -21.2033 87.7165 -20.3278
lowerback 6.54752 -0.524476 4.64698
upperback -2.95648 -0.379683 -1.96033
thorax -6.83739 -0.43953 -4.63705
lowerneck -7.26451 -5.01384 -5.9994
upperneck 13.7188 -7.07313 7.92537
head 5.8308 -3.15815 2.95954
rclavicle 4.42296e-015 8.34896e-015
rhumerus -91.4816 37.1037 -114.617
rradius 109.76
rwrist 8.62218
rhand 3.82615 12.9217
rfingers 7.12502
rthumb 29.2497 -14.7988
lclavicle 4.42296e-015 8.34896e-015
lhumerus -12.4618 26.2533 8.2962
lradius 90.4376
lwrist 13.1053
lhand 4.43095 44.3758
lfingers 7.12502
lthumb 29.8271 71.9942
rfemur -0.0225563 0.131436 20.1493
rtibia 15.2012
rfoot -15.0815 0.829605
rtoes -5.76621
lfemur 4.2121 1.27874 -14.663
ltibia 6.8181
lfoot -10.7291 2.32652
ltoes -8.26863
1148
root 3.06746 17.6942 0.59309 -21.7251 87.7718 -20.8405
lowerback 6.51899 -0.541169 4.5758
upperback -2.9991 -0.410127 -1.98168
thorax -6.86922 -0.453354 -4.6157
lowerneck -7.29287 -4.9977 -5.97681
upperneck 13.812 -7.04767 7.85792
head 5.85976 -3.1469 2.93595
rclavicle 3.80176e-015 2.38542e-015
rhumerus -91.462 37.1175 -114.616
rradius 109.707
rwrist 8.53976
rhand 3.97327 12.9865
rfingers 7.12502
rthumb 29.3902 -14.7095
lclavicle 3.80176e-015 2.38542e-015
lhumerus -12.4602 26.0301 8.0472
lradius 90.5167
lwrist 13.4694
lhand 4.11661 44.5655
lfingers 7.12502
lthumb 29.527 72.2374
rfemur 0.0180068 0.0596413 20.1508
rtibia 15.1731
rfoot -15.0616 0.870295
rtoes -5.79643
lfemur 4.16364 1.2263 -14.6525
ltibia 6.92388
lfoot -10.8107 2.29779
ltoes -8.15895
1149
root 3.0716 17.6952 0.596757 -22.3752 87.8386 -21.4919
lowerback 6.47231 -0.558895 4.50745
upperback -3.03462 -0.442701 -2.00636
thorax -6.88327 -0.467757 -4.59913
lowerneck -7.31509 -4.96981 -5.92646
upperneck 13.8668 -6.99918 7.72757
head 5.8708 -3.12873 2.8899
rclavicle -7.42958e-015 -7.95139e-015
rhumerus -91.4339 37.1348 -114.644
rradius 109.638
rwrist 8.43219
rhand 4.01648 13.0015
rfingers 7.12502
rthumb 29.4314 -14.6872
lclavicle -7.42958e-015 -7.95139e-015
lhumerus -12.5329 25.6538 7.75074
lradius 90.657
lwrist 13.8398
lhand 3.82244 44.7518
lfingers 7.12502
lthumb 29.2462 72.473
rfemur 0.0468155 0.0281161 20.1631
rtibia 15.1709
rfoot -15.0974 0.856853
rtoes -5.88445
lfemur 4.1557 1.16231 -14.6425
ltibia 6.96186
lfoot -10.8162 2.26909
ltoes -8.08622
1150
root 3.07605 17.6943 0.602175 -22.0111 87.8994 -21.1422
lowerback 6.37694 -0.566331 4.37107
upperback -3.05901 -0.470487 -2.04577
thorax -6.85576 -0.475588 -4.55987
lowerneck -7.32901 -4.92403 -5.8871
upperneck 13.8851 -6.92793 7.62848
head 5.86889 -3.09881 2.85768
rclavicle 8.49804e-015 1.94809e-014
rhumerus -91.4037 37.1578 -114.678
rradius 109.567
rwrist 8.41342
rhand 3.97403 13.0612
rfingers 7.12502
rthumb 29.3909 -14.6347
lclavicle 8.49804e-015 1.94809e-014
lhumerus -12.5272 25.588 7.64405
lradius 90.7137
lwrist 13.8743
lhand 3.80017 44.7648
lfingers 7.12502
lthumb 29.2249 72.4897
rfemur 0.0461671 -0.0271626 20.1385
rtibia 15.1965
rfoot -15.1208 0.875838
rtoes -5.73031
lfemur 4.18901 1.1192 -14.6601
ltibia 6.89475
lfoot -10.7882 2.28074
ltoes -8.14129
1151
root 3.082 17.6934 0.608231 -22.0574 87.908 -21.2132
lowerback 6.26042 -0.551076 4.26611
upperback -3.09378 -0.464988 -2.08022
thorax -6.82375 -0.468382 -4.53736
lowerneck -7.37614 -4.88966 -5.86212
upperneck 13.9612 -6.87162 7.52801
head 5.89248 -3.07515 2.82536
rclavicle -5.1684e-015 -1.94809e-014
rhumerus -91.3368 37.1836 -114.69
rradius 109.484
rwrist 8.37994
rhand 3.99928 13.1495
rfingers 7.12502
rthumb 29.415 -14.5421
lclavicle -5.1684e-015 -1.94809e-014
lhumerus -12.3925 25.7343 7.68771
lradius 90.6781
lwrist 13.7761
lhand 4.01136 44.6654
lfingers 7.12502
lthumb 29.4265 72.355
rfemur 0.0200844 -0.0399301 20.1566
rtibia 15.2506
rfoot -15.1465 0.862616
rtoes -5.82778
lfemur 4.28212 1.1192 -14.6443
ltibia 6.71362
lfoot -10.7386 2.28642
ltoes -8.10954
1152
root 3.08757 17.6934 0.613586 -20.8034 87.981 -19.9788
lowerback 6.18094 -0.536872 4.12196
upperback -3.14864 -0.463803 -2.13961
thorax -6.83481 -0.463504 -4.51883
lowerneck -7.40735 -4.88147 -5.89629
upperneck 14.0218 -6.84827 7.46082
head 5.91406 -3.06897 2.81084
rclavicle -2.03754e-015 -3.85642e-014
rhumerus -91.2858 37.1406 -114.637
rradius 109.436
rwrist 8.30358
rhand 4.11756 13.1534
rfingers 7.12502
rthumb 29.5279 -14.5183
lclavicle -2.03754e-015 -3.85642e-014
lhumerus -12.2476 25.7247 7.71247
lradius 90.7055
lwrist 13.9387
lhand 3.8546 44.6922
lfingers 7.12502
lthumb 29.2769 72.408
rfemur -0.00789386 -0.0786547 20.0957
rtibia 15.3155
rfoot -15.1957 0.900632
rtoes -5.76899
lfemur 4.36538 1.07614 -14.7049
ltibia 6.54093
lfoot -10.6657 2.2712
ltoes -7.87694
1153
root 3.09322 17.6928 0.620029 -18.6403 88.0719 -17.7804
lowerback 6.15012 -0.523365 3.93792
upperback -3.18431 -0.466391 -2.21335
thorax -6.85347 -0.458807 -4.49241
lowerneck -7.48752 -4.86736 -5.92182
upperneck 14.1173 -6.81556 7.37944
head 5.95364 -3.05728 2.79011
rclavicle 1.83876e-015 -5.96354e-015
rhumerus -91.2407 37.0897 -114.564
rradius 109.379
rwrist 8.23505
rhand 4.18497 13.1801
rfingers 7.12502
rthumb 29.5923 -14.4802
lclavicle 1.83876e-015 -5.96354e-015
lhumerus -12.1002 25.6637 7.72702
lradius 90.7271
lwrist 14.1605
lhand 3.26942 44.6935
lfingers 7.12502
lthumb 28.718 72.5054
rfemur 0.0357864 -0.0973939 20.005
rtibia 15.3651
rfoot -15.2785 0.911102
rtoes -5.7121
lfemur 4.47601 1.02033 -14.7992
ltibia 6.42322
lfoot -10.6353 2.26169
ltoes -7.68471
1154
root 3.10133 17.6903 0.627048 -19.5957 88.0611 -18.6777
lowerback 6.09456 -0.487242 3.86282
upperback -3.19987 -0.427904 -2.24881
thorax -6.83309 -0.436751 -4.49193
lowerneck -7.52174 -4.86054 -5.94327
upperneck 14.1467 -6.79203 7.2977
head 5.96509 -3.05215 2.76882
rclavicle -1.58034e-014 -2.78299e-015
rhumerus -91.1882 37.05 -114.544
rradius 109.284
rwrist 8.20475
rhand 4.23868 13.2763
rfingers 7.12502
rthumb 29.6435 -14.3749
lclavicle -1.58034e-014 -2.78299e-015
lhumerus -12.0167 25.6687 7.76816
lradius 90.7589
lwrist 14.1405
lhand 2.95232 44.6608
lfingers 7.12502
lthumb 28.415 72.5237
rfemur 0.11619 -0.191733 20.05
rtibia 15.3873
rfoot -15.2647 1.00923
rtoes -5.99269
lfemur 4.59135 1.02137 -14.7442
ltibia 6.40582
lfoot -10.6709 2.29246
ltoes -7.89222
1155
root 3.11006 17.6869 0.631592 -21.6122 88.0607 -20.6636
lowerback 5.99852 -0.469091 3.84793
upperback -3.22062 -0.410101 -2.30099
thorax -6.79834 -0.427748 -4.54081
lowerneck -7.51316 -4.83867 -5.86844
upperneck 14.1225 -6.7539 7.17755
head 5.9467 -3.03934 2.72181
rclavicle -6.01324e-015 -6.36111e-015
rhumerus -91.1352 37.027 -114.603
rradius 109.169
rwrist 8.16715
rhand 4.25686 13.3199
rfingers 7.12502
rthumb 29.6609 -14.3282
lclavicle -6.01324e-015 -6.36111e-015
lhumerus -11.968 25.7506 7.75468
lradius 90.8331
lwrist 14.047
lhand 3.08595 44.5987
lfingers 7.12502
lthumb 28.5427 72.4401
rfemur 0.211224 -0.379601 20.1121
rtibia 15.3352
rfoot -15.1746 1.15258
rtoes -6.12742
lfemur 4.5358 1.0018 -14.6637
ltibia 6.65768
lfoot -10.8551 2.222
ltoes -7.64175
1156
root 3.11205 17.6855 0.638259 -24.6055 88.0418 -23.6852
lowerback 5.9559 -0.468906 3.82962
upperback -3.29582 -0.413679 -2.34292
thorax -6.85474 -0.432027 -4.57513
lowerneck -7.46945 -4.79929 -5.78462
upperneck 14.0787 -6.69596 7.07493
head 5.91509 -3.01607 2.6814
rclavicle 5.61567e-015 -7.95139e-016
rhumerus -91.0971 37.0231 -114.69
rradius 109.037
rwrist 8.1238
rhand 3.96926 13.095
rfingers 7.12502
rthumb 29.3864 -14.6017
lclavicle 5.61567e-015 -7.95139e-016
lhumerus -11.9438 25.7522 7.64063
lradius 90.972
lwrist 14.0787
lhand 3.14242 44.6073
lfingers 7.12502
lthumb 28.5966 72.4397
rfemur 0.231262 -0.399076 20.2536
rtibia 15.2374
rfoot -15.1046 1.0763
rtoes -6.1179
lfemur 4.30299 0.988918 -14.5325
ltibia 7.05038
lfoot -11.0247 2.1601
ltoes -7.32425
